# AST/ASF file generated using VICON BodyLanguage
# -----------------------------------------------
:version 1.10
:name VICON
:units
  mass 1.0
  length 0.45
  angle deg
:documentation
   .ast/.asf automatically generated from VICON data using
   VICON BodyBuilder and BodyLanguage model FoxedUp or BRILLIANT.MOD
:root
   order TX TY TZ RX RY RZ
   axis XYZ
   position 0 0 0  
   orientation 0 0 0 
:bonedata
  begin
     id 1 
     name lhipjoint
     direction 0.693937 -0.600361 0.397515 
     length 2.37164 
     axis 0 0 0  XYZ
  end
  begin
     id 2 
     name lfemur
     direction 0.34202 -0.939693 0  
     length 6.18497  
     axis 0 0 20  XYZ
    dof rx ry rz
    limits (-160.0 20.0)
           (-70.0 70.0)
           (-60.0 70.0)
  end
  begin
     id 3 
     name ltibia
     direction 0.34202 -0.939693 0   
     length 6.91601   
     axis 0 0 20   XYZ
    dof rx
    limits (-10.0 170.0)
  end
  begin
     id 4 
     name lfoot
     direction 0.0978718 -0.2689 0.958182   
     length 1.81453   
     axis -90 7.62852e-016 20   XYZ
    dof rx rz
    limits (-45.0 90.0)
           (-70.0 20.0)
  end
  begin
     id 5 
     name ltoes
     direction 1.53569e-011 -4.21951e-011 1   
     length 0.912052   
     axis -90 7.62852e-016 20   XYZ
    dof rx
    limits (-90.0 20.0)
  end
  begin
     id 6 
     name rhipjoint
     direction -0.643996 -0.637876 0.422354   
     length 2.23216  
     axis 0 0 0  XYZ 
  end
  begin
     id 7 
     name rfemur
     direction -0.34202 -0.939693 0   
     length 6.15404   
     axis 0 0 -20   XYZ
    dof rx ry rz
    limits (-160.0 20.0)
           (-70.0 70.0)
           (-70.0 60.0)
  end
  begin
     id 8 
     name rtibia
     direction -0.34202 -0.939693 0   
     length 6.86744   
     axis 0 0 -20   XYZ
    dof rx
    limits (-10.0 170.0)
 end
 begin
     id 9 
     name rfoot
     direction -0.118701 -0.326127 0.937844   
     length 1.9243  
     axis -90 -7.62852e-016 -20   XYZ
    dof rx rz
    limits (-45.0 90.0)
           (-20.0 70.0)
  end
  begin
     id 10 
     name rtoes
     direction -1.5356e-011 -4.2181e-011 1   
     length 0.958865   
     axis -90 -7.62852e-016 -20   XYZ
    dof rx
    limits (-90.0 20.0)
  end
  begin
     id 11 
     name lowerback
     direction 0.0310826 0.968686 -0.246334   
     length 2.00021   
     axis 0 0 0   XYZ
    dof rx ry rz
    limits (-20.0 45.0)
           (-30.0 30.0)
           (-30.0 30.0)
  end
  begin
     id 12 
     name upperback
     direction -0.0152834 0.999474 -0.0286152   
     length 2.03728   
     axis 0 0 0   XYZ
    dof rx ry rz
    limits (-20.0 45.0)
           (-30.0 30.0)
           (-30.0 30.0)
  end
  begin
     id 13 
     name thorax
     direction -0.0323701 0.996236 0.0804149   
     length 2.16   
     axis 0 0 0   XYZ
    dof rx ry rz
    limits (-20.0 45.0)
           (-30.0 30.0)
           (-30.0 30.0)
  end
  begin
     id 14 
     name lowerneck
     direction 0.0307935 0.982251 0.185027   
     length 1.43558   
     axis 0 0 0   XYZ
    dof rx ry rz
    limits (-20.0 45.0)
           (-30.0 30.0)
           (-30.0 30.0)
  end
  begin
     id 15 
     name upperneck
     direction -0.0927153 0.994775 0.0427454   
     length 1.44603   
     axis 0 0 0   XYZ
    dof rx ry rz
    limits (-20.0 45.0)
           (-30.0 30.0)
           (-30.0 30.0)
  end
  begin
     id 16
     name head
     direction -0.0341265 0.999406 -0.00472033  
     length 1.45931  
     axis 0 0 0   XYZ
    dof rx ry rz
    limits (-20.0 45.0)
           (-30.0 30.0)
           (-30.0 30.0)
  end
  begin
     id 17 
     name lclavicle
     direction 0.820755 0.555306 -0.134151  
     length 2.66075  
     axis 0 0 0   XYZ
    dof ry rz
    limits (-20.0 10.0)
           (0.0 20.0)
  end
  begin
     id 18 
     name lhumerus
     direction 1 -4.48971e-011 5.24853e-027   
     length 5.0546   
     axis -180 -30 -90   XYZ
    dof rx ry rz
    limits (-60.0 90.0)
           (-90.0 90.0)
           (-90.0 90.0)
  end
  begin
     id 19
     name lradius
     direction 1 -4.48971e-011 2.76575e-028   
     length 3.39013   
     axis -180 -30 -90   XYZ
    dof rx
    limits (-10.0 170.0)
  end
  begin
     id 20
     name lwrist
     direction 1 -4.48939e-011 -2.27826e-027   
     length 1.69507   
     axis 2.17013e-015 90 90   XYZ
    dof ry
    limits (-180.0 0.0)
 end
  begin
     id 21 
     name lhand
     direction 1 -4.49009e-011 -4.55652e-027   
     length 0.572425   
     axis 2.90745e-015 90 90   XYZ
    dof rx rz
    limits (-90.0 90.0)
           (-45.0 45.0)
  end
  begin
     id 22 
     name lfingers
     direction 1 -4.48955e-011 -9.11303e-027   
     length 0.461504   
     axis 5.81489e-015 90 90   XYZ
    dof rx
    limits (0.0 90.0)
  end
  begin
     id 23
     name lthumb
     direction 0.707107 -6.34929e-011 0.707107   
     length 0.66263   
     axis -90 45 2.85299e-015   XYZ
    dof rx rz
    limits (-45.0 45.0)
           (-45.0 45.0)
  end
  begin
     id 24 
     name rclavicle
     direction -0.754477 0.632921 -0.173712   
     length 2.73081  
     axis 0 0 0   XYZ 
    dof ry rz
    limits (-10.0 20.0)
           (-20.0 0.0)
  end
  begin
     id 25 
     name rhumerus
     direction -1 -4.48969e-011 5.1496e-027  
     length 5.0701   
     axis -180 30 90   XYZ
    dof rx ry rz
    limits (-90.0 60.0)
           (-90.0 90.0)
           (-90.0 90.0)
  end
  begin
     id 26 
     name rradius
     direction -1 -4.48967e-011 -7.15624e-028   
     length 3.14957   
     axis -180 30 90   XYZ
    dof rx
    limits (-10.0 170.0)
  end
  begin
     id 27 
     name rwrist
     direction -1 -4.48938e-011 -2.27826e-027   
     length 1.57479   
     axis 2.17013e-015 -90 -90   XYZ
    dof ry
    limits (-180.0 0.0)
  end
  begin
     id 28
     name rhand
     direction -1 -4.49008e-011 -4.55652e-027   
     length 0.718191   
     axis 2.90745e-015 -90 -90   XYZ
    dof rx rz
    limits (-90.0 90.0)
           (-45.0 45.0)
  end
  begin
     id 29
     name rfingers
     direction -1 -4.48953e-011 -9.11303e-027   
     length 0.579024   
     axis 5.81489e-015 -90 -90   XYZ
    dof rx
    limits (0.0 90.0)
  end
  begin
     id 30
     name rthumb
     direction -0.707107 -6.34937e-011 0.707107   
     length 0.831366   
     axis -90 -45 -2.85299e-015   XYZ
    dof rx rz
    limits (-45.0 45.0)
           (-45.0 45.0)
  end
:hierarchy
  begin
    root lhipjoint rhipjoint lowerback
    lhipjoint lfemur
    lfemur ltibia
    ltibia lfoot
    lfoot ltoes
    rhipjoint rfemur
    rfemur rtibia
    rtibia rfoot
    rfoot rtoes
    lowerback upperback
    upperback thorax
    thorax lowerneck lclavicle rclavicle
    lowerneck upperneck
    upperneck head
    lclavicle lhumerus
    lhumerus lradius
    lradius lwrist
    lwrist lhand lthumb
    lhand lfingers
    rclavicle rhumerus
    rhumerus rradius
    rradius rwrist
    rwrist rhand rthumb
    rhand rfingers
  end

#!OML:ASF H:\Male1\Project 1\Capture day 1\Session 1\Male1.ASF
:FULLY-SPECIFIED
:DEGREES
112
root -23.7895 14.9688 -0.531767 -7.17461 86.6085 -7.79598
lowerback 3.06146 2.03382 -0.303134
upperback 2.8785 2.76407 -1.1878
thorax 1.28188 1.41068 -1.09799
lowerneck -11.3706 4.90979 7.97457
upperneck 10.5977 5.65689 -2.69022
head 5.36207 2.91225 -1.66778
rclavicle 1.49089e-016 7.95139e-016
rhumerus -36.1454 -0.398813 -88.6243
rradius 35.6794
rwrist -20.8784
rhand -17.6379 -0.139864
rfingers 7.12502
rthumb 8.61974 -29.9439
lclavicle 1.49089e-016 7.95139e-016
lhumerus -33.4628 -4.57216 85.8446
lradius 30.6549
lwrist -0.181738
lhand -20.3359 10.8591
lfingers 7.12502
lthumb 6.01556 40.7537
rfemur -9.4124 17.3678 23.7341
rtibia 32.766
rfoot -34.5308 -30.8895
rtoes -26.1131
lfemur -11.1696 -17.3356 -22.4422
ltibia 34.8875
lfoot -29.3488 23.0385
ltoes -4.52258
113
root -23.7706 14.9691 -0.543732 -8.76163 86.6055 -9.51163
lowerback 3.03894 2.01307 -0.181497
upperback 2.89235 2.73985 -1.22612
thorax 1.31589 1.40129 -1.20339
lowerneck -11.2786 4.89744 8.09679
upperneck 10.3396 5.6446 -2.8614
head 5.27376 2.89637 -1.74602
rclavicle 2.33572e-015 1.27222e-014
rhumerus -35.7526 -0.366319 -88.9015
rradius 35.1817
rwrist -20.9882
rhand -17.8331 -0.174983
rfingers 7.12502
rthumb 8.43137 -29.9867
lclavicle 2.33572e-015 1.27222e-014
lhumerus -33.9514 -5.11165 85.9927
lradius 31.0363
lwrist 0.178691
lhand -20.5912 11.0141
lfingers 7.12502
lthumb 5.76904 40.9155
rfemur -9.46369 17.3904 23.7787
rtibia 32.772
rfoot -34.7404 -31.0324
rtoes -26.992
lfemur -11.255 -17.2327 -22.3502
ltibia 34.9179
lfoot -29.4468 22.8726
ltoes -4.72213
114
root -23.75 14.9694 -0.556095 -8.57848 86.5675 -9.53984
lowerback 2.90876 2.00501 -0.167449
upperback 2.91562 2.73231 -1.30363
thorax 1.41697 1.39904 -1.2847
lowerneck -11.3016 4.90662 8.1963
upperneck 10.1795 5.64767 -2.96279
head 5.23351 2.89215 -1.79407
rclavicle -4.63665e-014 1.63003e-014
rhumerus -35.1254 -0.267397 -89.2861
rradius 34.3497
rwrist -21.0578
rhand -17.9875 -0.185198
rfingers 7.12502
rthumb 8.28238 -30.0028
lclavicle -4.63665e-014 1.63003e-014
lhumerus -34.3292 -5.70684 86.1448
lradius 31.2331
lwrist 0.608942
lhand -20.7633 11.4175
lfingers 7.12502
lthumb 5.60291 41.3234
rfemur -9.59909 17.3263 23.6801
rtibia 32.7533
rfoot -34.9094 -31.1432
rtoes -28.1723
lfemur -11.4458 -17.0623 -22.3338
ltibia 34.9859
lfoot -29.5295 22.7125
ltoes -4.77817
115
root -23.7271 14.9674 -0.569818 -8.22494 86.4889 -9.33322
lowerback 2.8492 2.00659 -0.189208
upperback 2.95623 2.73693 -1.35395
thorax 1.49368 1.40225 -1.32082
lowerneck -11.4627 4.90065 8.04195
upperneck 10.1939 5.62863 -2.78663
head 5.25408 2.88718 -1.71263
rclavicle -2.5842e-014 1.31198e-014
rhumerus -34.3644 -0.175557 -89.6933
rradius 33.3023
rwrist -20.926
rhand -18.2178 -0.102332
rfingers 7.12502
rthumb 8.06012 -29.9286
lclavicle -2.5842e-014 1.31198e-014
lhumerus -34.6669 -6.32976 86.3813
lradius 31.2302
lwrist 1.10211
lhand -20.8101 11.7524
lfingers 7.12502
lthumb 5.55771 41.6595
rfemur -9.67344 17.1899 23.5821
rtibia 32.7533
rfoot -34.9267 -31.1519
rtoes -29.205
lfemur -11.5393 -16.9581 -22.3758
ltibia 35.0527
lfoot -29.7436 22.6287
ltoes -4.69352
116
root -23.7032 14.9626 -0.584054 -9.24734 86.4516 -10.3536
lowerback 3.02609 1.96146 -0.221009
upperback 3.00195 2.67595 -1.30827
thorax 1.43673 1.3714 -1.26135
lowerneck -11.5414 4.85194 7.7308
upperneck 10.0764 5.58412 -2.61768
head 5.21387 2.8621 -1.61398
rclavicle 1.99779e-014 -6.75868e-015
rhumerus -33.5314 -0.0165176 -90.0528
rradius 32.2221
rwrist -20.3695
rhand -18.3935 -0.324319
rfingers 7.12502
rthumb 7.89056 -30.1571
lclavicle 1.99779e-014 -6.75868e-015
lhumerus -35.1087 -6.61765 86.6349
lradius 31.2449
lwrist 1.16121
lhand -20.3893 11.7722
lfingers 7.12502
lthumb 5.96397 41.6683
rfemur -9.58798 16.9347 23.5946
rtibia 32.7799
rfoot -34.8712 -31.0547
rtoes -29.8316
lfemur -11.439 -16.9415 -22.4049
ltibia 35.1021
lfoot -30.103 22.5233
ltoes -4.86884
117
root -23.6784 14.958 -0.598598 -9.25393 86.3238 -10.3457
lowerback 3.24838 1.92397 -0.387474
upperback 3.05248 2.62207 -1.24168
thorax 1.35272 1.34156 -1.10682
lowerneck -11.4201 4.93133 7.75749
upperneck 9.79142 5.72459 -2.89104
head 5.12057 2.91037 -1.69663
rclavicle -6.95746e-015 5.96354e-015
rhumerus -32.7348 0.329835 -90.4586
rradius 31.2096
rwrist -19.5527
rhand -18.2523 -0.0799121
rfingers 7.12502
rthumb 8.02682 -29.9075
lclavicle -6.95746e-015 5.96354e-015
lhumerus -35.5124 -6.58393 86.8024
lradius 31.1909
lwrist 0.754292
lhand -19.6954 11.6133
lfingers 7.12502
lthumb 6.63389 41.4893
rfemur -9.54221 16.5147 23.5125
rtibia 32.8316
rfoot -34.7249 -30.746
rtoes -30.2062
lfemur -11.2933 -16.8408 -22.4971
ltibia 35.1309
lfoot -30.4716 22.4466
ltoes -5.46203
118
root -23.6525 14.9577 -0.612873 -8.3982 85.8276 -9.69708
lowerback 3.24686 2.08512 -0.499073
upperback 3.05859 2.83511 -1.26149
thorax 1.35925 1.44644 -1.06873
lowerneck -11.4982 4.91861 7.75965
upperneck 9.69641 5.71274 -3.01322
head 5.10675 2.89434 -1.73535
rclavicle 5.84427e-014 -2.18663e-014
rhumerus -32.0378 0.648665 -90.9971
rradius 30.6169
rwrist -18.658
rhand -17.9925 -0.292853
rfingers 7.12502
rthumb 8.27761 -30.1107
lclavicle 5.84427e-014 -2.18663e-014
lhumerus -35.8332 -6.86237 86.9845
lradius 31.0252
lwrist 0.586633
lhand -18.97 11.4581
lfingers 7.12502
lthumb 7.33409 41.311
rfemur -9.81202 16.2821 23.3498
rtibia 32.8911
rfoot -34.4149 -30.3318
rtoes -30.7518
lfemur -11.3689 -16.4822 -22.5126
ltibia 35.1652
lfoot -30.8312 22.5196
ltoes -6.14252
119
root -23.6213 14.9558 -0.629906 -6.77235 85.7352 -8.31386
lowerback 3.16183 2.12457 -0.688421
upperback 3.08383 2.88721 -1.32078
thorax 1.42744 1.47009 -1.02064
lowerneck -11.5781 4.88945 7.77284
upperneck 9.55645 5.67609 -3.13793
head 5.07824 2.86592 -1.77911
rclavicle -2.71341e-014 1.59028e-015
rhumerus -31.3041 1.15264 -91.6126
rradius 30.122
rwrist -17.9665
rhand -17.7694 -0.121713
rfingers 7.12502
rthumb 8.49284 -29.9309
lclavicle -2.71341e-014 1.59028e-015
lhumerus -36.1336 -7.06368 87.164
lradius 30.7698
lwrist 0.461158
lhand -18.4538 11.1939
lfingers 7.12502
lthumb 7.83239 41.0288
rfemur -10.0224 16.1299 23.1118
rtibia 32.95
rfoot -34.4382 -30.2199
rtoes -31.2559
lfemur -11.5242 -16.2361 -22.632
ltibia 35.2104
lfoot -30.9857 22.4618
ltoes -7.05955
120
root -23.5876 14.947 -0.651975 -6.696 85.5415 -8.18656
lowerback 3.38589 2.08505 -0.788831
upperback 3.16091 2.83191 -1.26298
thorax 1.37309 1.44119 -0.911947
lowerneck -11.4097 4.95949 7.64253
upperneck 9.26479 5.82038 -3.31485
head 4.96861 2.91852 -1.80751
rclavicle -3.05134e-014 1.15295e-014
rhumerus -30.6874 2.25585 -92.2957
rradius 29.8691
rwrist -17.6748
rhand -17.5897 0.15546
rfingers 7.12502
rthumb 8.66628 -29.6467
lclavicle -3.05134e-014 1.15295e-014
lhumerus -36.5685 -6.74626 87.3266
lradius 30.5332
lwrist 0.313217
lhand -19.1804 10.9461
lfingers 7.12502
lthumb 7.13102 40.806
rfemur -9.91174 15.9708 23.0404
rtibia 33.0163
rfoot -34.3826 -30.1641
rtoes -32.1655
lfemur -11.3097 -16.1773 -22.8092
ltibia 35.2696
lfoot -31.3628 22.5158
ltoes -7.48247
121
root -23.5512 14.9419 -0.672734 -8.50791 85.2059 -10.148
lowerback 3.44693 2.21647 -0.598207
upperback 3.20137 3.01277 -1.31297
thorax 1.39515 1.53649 -1.0747
lowerneck -11.5612 4.92439 7.75921
upperneck 9.23749 5.75105 -3.40437
head 4.98742 2.88093 -1.85677
rclavicle 4.96962e-016 -3.18055e-015
rhumerus -30.1549 2.88763 -93.0708
rradius 29.9631
rwrist -17.623
rhand -17.3577 0.159779
rfingers 7.12502
rthumb 8.89017 -29.6329
lclavicle 4.96962e-016 -3.18055e-015
lhumerus -37.0293 -7.18247 87.5402
lradius 30.4277
lwrist 0.865591
lhand -18.7282 10.833
lfingers 7.12502
lthumb 7.56753 40.6776
rfemur -10.0037 15.8134 23.1238
rtibia 33.0558
rfoot -34.2921 -30.1263
rtoes -33.3391
lfemur -11.3084 -15.9186 -22.6943
ltibia 35.3591
lfoot -31.855 22.3297
ltoes -7.49051
122
root -23.5119 14.9387 -0.696251 -7.99511 84.8937 -9.95384
lowerback 3.35438 2.32613 -0.587515
upperback 3.19068 3.16119 -1.40137
thorax 1.44383 1.61186 -1.17021
lowerneck -11.6352 4.94997 7.91788
upperneck 9.06758 5.78443 -3.70851
head 4.96236 2.88046 -1.97371
rclavicle -3.84648e-014 1.98785e-014
rhumerus -29.6809 3.63393 -93.8391
rradius 30.2257
rwrist -17.7321
rhand -17.1611 -0.0102355
rfingers 7.12502
rthumb 9.07989 -29.7948
lclavicle -3.84648e-014 1.98785e-014
lhumerus -37.5517 -7.44245 87.7392
lradius 30.2692
lwrist 1.45926
lhand -19.6585 10.121
lfingers 7.12502
lthumb 6.66953 39.996
rfemur -10.2776 15.5575 22.9262
rtibia 33.0789
rfoot -34.0745 -30.0241
rtoes -34.4603
lfemur -11.496 -15.6083 -22.7345
ltibia 35.4618
lfoot -32.3217 22.0281
ltoes -7.07428
123
root -23.466 14.9346 -0.714823 -8.96893 85.0483 -11.1819
lowerback 3.30692 2.30218 -0.658011
upperback 3.18812 3.12858 -1.41222
thorax 1.46401 1.59425 -1.13932
lowerneck -11.7222 4.95611 7.91783
upperneck 8.99111 5.79177 -3.78123
head 4.95546 2.87749 -1.99457
rclavicle -2.47487e-014 3.97569e-015
rhumerus -29.2985 4.28699 -94.5087
rradius 30.6762
rwrist -17.8697
rhand -16.9869 0.263299
rfingers 7.12502
rthumb 9.24794 -29.5139
lclavicle -2.47487e-014 3.97569e-015
lhumerus -38.2339 -7.39324 87.8389
lradius 30.254
lwrist 1.65863
lhand -19.6258 10.3277
lfingers 7.12502
lthumb 6.7011 40.2017
rfemur -10.32 15.5566 22.9432
rtibia 33.0796
rfoot -34.0892 -30.3115
rtoes -34.6842
lfemur -11.6427 -15.535 -22.6831
ltibia 35.5751
lfoot -32.5825 21.6206
ltoes -6.99066
124
root -23.4127 14.9296 -0.741156 -10.0765 84.9783 -12.5238
lowerback 3.22004 2.26967 -0.647114
upperback 3.23316 3.08729 -1.36751
thorax 1.55627 1.57327 -1.09374
lowerneck -11.7819 5.09459 7.83322
upperneck 8.86741 5.99852 -3.90764
head 4.94012 2.96559 -2.00244
rclavicle 6.53008e-014 -1.31198e-014
rhumerus -28.936 5.3132 -95.1439
rradius 31.3492
rwrist -18.1982
rhand -16.9748 0.550364
rfingers 7.12502
rthumb 9.25963 -29.2263
lclavicle 6.53008e-014 -1.31198e-014
lhumerus -39.1341 -7.04671 87.9787
lradius 30.6943
lwrist 2.00822
lhand -19.7583 10.1794
lfingers 7.12502
lthumb 6.57314 40.0574
rfemur -10.38 15.6384 22.9573
rtibia 33.1072
rfoot -33.8579 -30.3684
rtoes -34.714
lfemur -11.6813 -15.6579 -22.6898
ltibia 35.6624
lfoot -33.0706 21.5326
ltoes -6.76371
125
root -23.3575 14.9203 -0.760892 -10.9442 84.7497 -13.5188
lowerback 3.30413 2.32997 -0.741283
upperback 3.24903 3.16462 -1.32727
thorax 1.51949 1.60985 -1.00494
lowerneck -11.8925 5.16852 7.75123
upperneck 8.84037 6.1145 -4.01861
head 4.95758 3.01069 -2.01182
rclavicle 8.24956e-015 -3.97569e-015
rhumerus -28.7722 6.37009 -95.7944
rradius 32.2093
rwrist -18.6581
rhand -17.4043 -0.32988
rfingers 7.12502
rthumb 8.84524 -30.1245
lclavicle 8.24956e-015 -3.97569e-015
lhumerus -40.1609 -7.07125 88.3008
lradius 31.2205
lwrist 2.48536
lhand -19.7462 10.2261
lfingers 7.12502
lthumb 6.58478 40.1038
rfemur -10.3181 15.9601 23.0599
rtibia 33.1678
rfoot -33.8616 -30.4548
rtoes -34.7228
lfemur -11.5599 -15.4537 -22.6764
ltibia 35.7195
lfoot -33.6004 21.3143
ltoes -6.67008
126
root -23.2941 14.9077 -0.784627 -12.407 84.8422 -14.9892
lowerback 3.4391 2.29316 -0.770851
upperback 3.32685 3.11639 -1.30512
thorax 1.52082 1.58615 -0.968985
lowerneck -11.8229 5.20528 7.80107
upperneck 8.58187 6.17503 -4.1968
head 4.87666 3.02968 -2.0737
rclavicle -2.93207e-014 9.14409e-015
rhumerus -28.6792 7.20935 -96.315
rradius 33.2873
rwrist -18.7979
rhand -17.0576 -1.1848
rfingers 7.12502
rthumb 9.1798 -30.965
lclavicle -2.93207e-014 9.14409e-015
lhumerus -41.0153 -7.03278 88.5898
lradius 31.4968
lwrist 2.63476
lhand -19.4779 10.758
lfingers 7.12502
lthumb 6.8438 40.6274
rfemur -10.0626 16.0954 23.1841
rtibia 33.2639
rfoot -34.2026 -30.6652
rtoes -34.6241
lfemur -11.2812 -15.4964 -22.7461
ltibia 35.7394
lfoot -34.0244 21.1138
ltoes -6.37443
